<svg xmlns="http://www.w3.org/2000/svg" viewBox="0 0 1200 600" width="100%">
    <style>
        circle {
        fill: #fff;
        animation-name: twinkle;
        animation-timing-function: ease;
        animation-iteration-count: infinite;
        }

        @keyframes twinkle {
        0%, 100% {
        opacity: 1,
        }
        50% {
        opacity: 0.2
        }
        }
    </style>
    <circle cx="11.198458278695366%" cy="91.31940668908432%" r="1.9645124461384786"
        style="animation-duration: 2.75095s;"></circle>
    <circle cx="65.05160471507499%" cy="59.63260263998444%" r="0.9429491323388404"
        style="animation-duration: 2.99779s;"></circle>
    <circle cx="71.1348530517372%" cy="22.384658430007008%" r="1.3761293514497406"
        style="animation-duration: 2.09193s;"></circle>
    <circle cx="23.40283515328263%" cy="64.83437607036362%" r="0.42542269145823886"
        style="animation-duration: 2.62012s;"></circle>
    <circle cx="53.614764871530426%" cy="67.11838550782676%" r="0.7736569272778744"
        style="animation-duration: 2.4278s;"></circle>
    <circle cx="53.330324512985584%" cy="61.81576465837808%" r="0.46354722698394557"
        style="animation-duration: 2.65259s;"></circle>
    <circle cx="18.710262984237836%" cy="65.16046076242421%" r="0.17968039197037644"
        style="animation-duration: 2.82446s;"></circle>
    <circle cx="69.59153836208205%" cy="42.655228289871914%" r="0.4658056035401579"
        style="animation-duration: 2.50253s;"></circle>
    <circle cx="11.247343714391667%" cy="90.7175896462084%" r="0.12075016170428432"
        style="animation-duration: 2.76635s;"></circle>
    <circle cx="70.50747821379444%" cy="48.177865623515494%" r="1.039624609989843"
        style="animation-duration: 2.96693s;"></circle>
    <circle cx="77.93741808574191%" cy="69.76516507596702%" r="0.6024677173709732"
        style="animation-duration: 2.63294s;"></circle>
    <circle cx="32.61911079845046%" cy="10.200273178822016%" r="1.3050815384959948"
        style="animation-duration: 2.26209s;"></circle>
    <circle cx="55.79914524294127%" cy="78.44254745124768%" r="1.0751811698022404"
        style="animation-duration: 2.31873s;"></circle>
    <circle cx="49.46710747958467%" cy="30.29711993086355%" r="1.1521523093753538"
        style="animation-duration: 2.38085s;"></circle>
    <circle cx="10.229584219066389%" cy="61.59196219218948%" r="1.5240413992548603"
        style="animation-duration: 2.79158s;"></circle>
    <circle cx="62.22513603807418%" cy="16.21314727099401%" r="1.8179349300700216"
        style="animation-duration: 2.52332s;"></circle>
    <circle cx="35.91044440245659%" cy="81.02265763529668%" r="1.4326682343125432"
        style="animation-duration: 2.77058s;"></circle>
    <circle cx="85.84707057029703%" cy="17.15101992675332%" r="0.283469958607236"
        style="animation-duration: 2.41124s;"></circle>
    <circle cx="15.05185428247755%" cy="15.937427286562379%" r="0.5205264092060107"
        style="animation-duration: 2.58786s;"></circle>
    <circle cx="15.898748242869964%" cy="18.505490752204736%" r="0.1566919486472429"
        style="animation-duration: 2.64654s;"></circle>
    <circle cx="33.78857832100657%" cy="93.8301827704474%" r="1.1379704731149056"
        style="animation-duration: 2.56584s;"></circle>
    <circle cx="88.98956327117722%" cy="91.1715376220161%" r="1.84881676387305"
        style="animation-duration: 2.28519s;"></circle>
    <circle cx="33.23380941789091%" cy="53.56214338813812%" r="1.7718940402024246"
        style="animation-duration: 2.28551s;"></circle>
    <circle cx="78.57426441102501%" cy="86.44880743726088%" r="1.0620861723846784"
        style="animation-duration: 2.60937s;"></circle>
    <circle cx="48.59594720351734%" cy="26.180462315681964%" r="0.7837310162207558"
        style="animation-duration: 2.05307s;"></circle>
    <circle cx="59.32911017294609%" cy="90.45288047902875%" r="1.757827207052582"
        style="animation-duration: 2.7965s;"></circle>
    <circle cx="31.973771184051113%" cy="41.32594997061183%" r="1.577595447680801"
        style="animation-duration: 2.43511s;"></circle>
    <circle cx="27.46758966813836%" cy="79.96232282765175%" r="0.5443680910579545"
        style="animation-duration: 2.14004s;"></circle>
    <circle cx="21.18653150335783%" cy="68.38734720911255%" r="1.7789057012695086"
        style="animation-duration: 2.39903s;"></circle>
    <circle cx="99.95606371614309%" cy="28.79497357293761%" r="1.5212559807560182"
        style="animation-duration: 2.22011s;"></circle>
    <circle cx="14.383673141216335%" cy="21.412324636525646%" r="1.8143011572147176"
        style="animation-duration: 2.58366s;"></circle>
    <circle cx="74.9162331233421%" cy="27.655696293278996%" r="0.08321157946452207"
        style="animation-duration: 2.84582s;"></circle>
    <circle cx="64.2798562181975%" cy="37.195523758662155%" r="0.6657459246797419"
        style="animation-duration: 2.17765s;"></circle>
    <circle cx="17.23012117888645%" cy="33.24469526877423%" r="0.6540985423907499"
        style="animation-duration: 2.73054s;"></circle>
    <circle cx="8.287341991316%" cy="84.4410390217089%" r="0.09513065423438416"
        style="animation-duration: 2.8018s;"></circle>
    <circle cx="52.721955521364094%" cy="17.046627931136584%" r="0.7973412157985234"
        style="animation-duration: 2.37425s;"></circle>
    <circle cx="15.589812295031159%" cy="90.77767778088628%" r="0.5462720855184982"
        style="animation-duration: 2.41572s;"></circle>
    <circle cx="61.533896240905975%" cy="7.51687505161005%" r="1.251294406257344"
        style="animation-duration: 2.28323s;"></circle>
    <circle cx="70.55947891390935%" cy="10.067728467066871%" r="1.8430833074586626"
        style="animation-duration: 2.21015s;"></circle>
    <circle cx="17.169452776898986%" cy="25.3063486803776%" r="0.06975892641676706"
        style="animation-duration: 2.43305s;"></circle>
    <circle cx="26.647043207971333%" cy="62.32961485460082%" r="1.6677956538586636"
        style="animation-duration: 2.78342s;"></circle>
    <circle cx="84.88904937740574%" cy="64.31043122403261%" r="1.0589646851374557"
        style="animation-duration: 2.3436s;"></circle>
    <circle cx="7.211880230348067%" cy="35.304359404148315%" r="0.19663403414869807"
        style="animation-duration: 2.59755s;"></circle>
    <circle cx="82.33709561147147%" cy="68.52513588585751%" r="0.9555551343069779"
        style="animation-duration: 2.53357s;"></circle>
    <circle cx="68.10918731426376%" cy="64.43147337637707%" r="1.3770024594913988"
        style="animation-duration: 2.16357s;"></circle>
    <circle cx="36.192698959661215%" cy="30.374774706491394%" r="1.6764300723859988"
        style="animation-duration: 2.16427s;"></circle>
    <circle cx="8.792524263414192%" cy="30.999398306286572%" r="0.6895366306908728"
        style="animation-duration: 2.65006s;"></circle>
    <circle cx="82.3879203698165%" cy="5.912113403373698%" r="1.69816879967509"
        style="animation-duration: 2.26054s;"></circle>
    <circle cx="18.842357322545244%" cy="82.75176207762468%" r="0.10083490746969526"
        style="animation-duration: 2.81361s;"></circle>
    <circle cx="31.58924301727182%" cy="73.54056427027749%" r="0.5372379490454589"
        style="animation-duration: 2.51381s;"></circle>
    <circle cx="35.54378149451478%" cy="57.91705142263015%" r="1.2972845079194069"
        style="animation-duration: 2.67719s;"></circle>
    <circle cx="73.37474325496896%" cy="52.172550464974556%" r="1.02843754993145"
        style="animation-duration: 2.704s;"></circle>
    <circle cx="33.003318162716425%" cy="36.688602948991836%" r="0.2232449475193441"
        style="animation-duration: 2.38754s;"></circle>
    <circle cx="41.73843365237333%" cy="55.421358127810414%" r="1.2222417915776416"
        style="animation-duration: 2.8911s;"></circle>
    <circle cx="22.09995599260399%" cy="27.019548980241748%" r="0.8878765333061551"
        style="animation-duration: 2.96625s;"></circle>
    <circle cx="0.08422682531730175%" cy="54.36450286017558%" r="1.0167921039458236"
        style="animation-duration: 2.74836s;"></circle>
    <circle cx="28.75131691100816%" cy="88.96474955040996%" r="1.3999553989036855"
        style="animation-duration: 2.60655s;"></circle>
    <circle cx="10.432026514576688%" cy="52.953682247458424%" r="0.6131599457190244"
        style="animation-duration: 2.41968s;"></circle>
    <circle cx="50.80658811502374%" cy="3.6005006011461838%" r="0.8320521176762714"
        style="animation-duration: 2.13752s;"></circle>
    <circle cx="58.84866515744245%" cy="41.3205221124024%" r="0.7559025983869252"
        style="animation-duration: 2.77373s;"></circle>
    <circle cx="35.59550506695444%" cy="89.5285968565779%" r="1.4368205490582775"
        style="animation-duration: 2.82375s;"></circle>
    <circle cx="65.5626500790897%" cy="85.89654847180586%" r="1.5044815458916356"
        style="animation-duration: 2.84857s;"></circle>
    <circle cx="94.48109530782159%" cy="99.41064861744866%" r="1.1312526632896476"
        style="animation-duration: 2.93443s;"></circle>
    <circle cx="81.07400337334019%" cy="35.715518956009305%" r="0.9180487140897449"
        style="animation-duration: 2.61073s;"></circle>
    <circle cx="28.931924085989813%" cy="33.81753526738118%" r="0.7852899168580785"
        style="animation-duration: 2.70798s;"></circle>
    <circle cx="38.26236777192407%" cy="77.00907565443167%" r="1.7495403851937699"
        style="animation-duration: 2.98017s;"></circle>
    <circle cx="94.92368161448117%" cy="4.8308071887402715%" r="1.0404414487038718"
        style="animation-duration: 2.14434s;"></circle>
    <circle cx="75.99904388352414%" cy="60.25667631660625%" r="0.05045299125645286"
        style="animation-duration: 2.26999s;"></circle>
    <circle cx="87.69412014640908%" cy="53.32575105044206%" r="0.7424248460166925"
        style="animation-duration: 2.00938s;"></circle>
    <circle cx="76.0820953931002%" cy="46.85107208964665%" r="0.9784116669093539"
        style="animation-duration: 2.56059s;"></circle>
    <circle cx="73.23375361404179%" cy="15.199734772284001%" r="1.4322849057201008"
        style="animation-duration: 2.89224s;"></circle>
    <circle cx="71.72501055736167%" cy="70.14034608585501%" r="1.3343113439999716"
        style="animation-duration: 2.94299s;"></circle>
    <circle cx="30.5179354309584%" cy="41.9149087387034%" r="0.5493691011549222"
        style="animation-duration: 2.017s;"></circle>
    <circle cx="50.09635121200431%" cy="4.82150980020144%" r="0.022567613021093003"
        style="animation-duration: 2.8846s;"></circle>
    <circle cx="30.80150816915259%" cy="38.73030273679383%" r="0.8431311899654741"
        style="animation-duration: 2.97431s;"></circle>
    <circle cx="84.50682735329276%" cy="99.41651212104175%" r="0.7178239241883335"
        style="animation-duration: 2.63381s;"></circle>
    <circle cx="91.57468182148864%" cy="18.150872540178753%" r="0.6239132130565848"
        style="animation-duration: 2.92156s;"></circle>
    <circle cx="42.61985706816414%" cy="8.663991120524805%" r="0.46602368189980226"
        style="animation-duration: 2.55531s;"></circle>
    <circle cx="91.41513081921184%" cy="82.49024931134737%" r="1.234831100360413"
        style="animation-duration: 2.87243s;"></circle>
    <circle cx="47.68351193163287%" cy="86.43590098207163%" r="0.5058604001368687"
        style="animation-duration: 2.2362s;"></circle>
    <circle cx="97.22419071078541%" cy="38.885311902832754%" r="1.9529254667302545"
        style="animation-duration: 2.83681s;"></circle>
    <circle cx="50.275871098387185%" cy="86.96417464564006%" r="1.814154473618459"
        style="animation-duration: 2.48349s;"></circle>
    <circle cx="52.089849411678756%" cy="34.451405964202685%" r="1.4452450551154312"
        style="animation-duration: 2.87986s;"></circle>
    <circle cx="19.594294779397714%" cy="82.5458007973773%" r="0.5567514880653439"
        style="animation-duration: 2.1973s;"></circle>
    <circle cx="56.78308867304871%" cy="93.53130338270086%" r="0.21710729049411226"
        style="animation-duration: 2.44778s;"></circle>
    <circle cx="22.29570022449203%" cy="18.410560164173084%" r="1.3688228604299617"
        style="animation-duration: 2.0173s;"></circle>
    <circle cx="76.55723875388803%" cy="79.50158605571343%" r="0.7502594695133151"
        style="animation-duration: 2.79526s;"></circle>
    <circle cx="28.11466827703033%" cy="93.14287202869302%" r="1.5282167825475157"
        style="animation-duration: 2.12981s;"></circle>
    <circle cx="99.3003827213574%" cy="60.15015102770101%" r="0.049566456177302154"
        style="animation-duration: 2.42591s;"></circle>
    <circle cx="10.256183836538412%" cy="94.55134355409439%" r="0.9493938809661082"
        style="animation-duration: 2.11779s;"></circle>
    <circle cx="19.844499385574977%" cy="31.78221044041376%" r="0.8730436596852917"
        style="animation-duration: 2.90358s;"></circle>
    <circle cx="19.681984866029456%" cy="8.094280838910217%" r="0.7161259480328104"
        style="animation-duration: 2.55582s;"></circle>
    <circle cx="41.46827445801606%" cy="54.26570404538025%" r="1.6258489275214254"
        style="animation-duration: 2.21358s;"></circle>
    <circle cx="43.64534229133732%" cy="85.60036725235875%" r="1.9201498716182277"
        style="animation-duration: 2.45685s;"></circle>
    <circle cx="63.260969399491614%" cy="51.14832275588732%" r="0.81576365952241"
        style="animation-duration: 2.41709s;"></circle>
    <circle cx="94.37430213816897%" cy="70.16908653037719%" r="1.6956761341910802"
        style="animation-duration: 2.26898s;"></circle>
    <circle cx="26.30673520034046%" cy="45.74353496981758%" r="1.7752757261249132"
        style="animation-duration: 2.98776s;"></circle>
    <circle cx="13.14855877304173%" cy="62.41261281579884%" r="1.6322491999395128"
        style="animation-duration: 2.85043s;"></circle>
    <circle cx="46.02264878756972%" cy="59.75527578730333%" r="0.417539942083351"
        style="animation-duration: 2.21216s;"></circle>
    <circle cx="40.24693008552936%" cy="1.2789133700678246%" r="0.7749204166241661"
        style="animation-duration: 2.0841s;"></circle>
</svg>