<?xml version="1.0" standalone="no"?>
<!DOCTYPE svg PUBLIC "-//W3C//DTD SVG 20010904//EN"
 "http://www.w3.org/TR/2001/REC-SVG-20010904/DTD/svg10.dtd">
<svg version="1.0" xmlns="http://www.w3.org/2000/svg"
 width="300.000000pt" height="253.000000pt" viewBox="0 0 300.000000 253.000000"
 preserveAspectRatio="xMidYMid meet">
<metadata>
Created by potrace 1.10, written by Peter Selinger 2001-2011
</metadata>
<g transform="translate(0.000000,253.000000) scale(0.100000,-0.100000)"
fill="#000000" stroke="none">
<path d="M1997 2386 c-4 -27 -7 -82 -7 -122 0 -71 -1 -74 -23 -74 -35 0 -41
-12 -15 -32 l23 -18 -31 -28 c-18 -15 -49 -41 -70 -58 -97 -78 -126 -242 -64
-363 24 -47 85 -109 115 -117 37 -9 48 -54 42 -187 l-5 -122 -36 3 c-48 5 -48
-18 -1 -41 l35 -17 0 -115 0 -115 -65 0 c-47 0 -65 -4 -64 -12 1 -7 1 -43 0
-80 -1 -65 -2 -68 -25 -68 -13 0 -29 7 -36 15 -7 8 -18 15 -24 15 -7 0 -27 13
-46 30 -43 36 -53 37 -79 4 l-21 -26 -37 28 c-62 46 -142 125 -179 175 l-34
47 -9 338 c-5 209 -5 346 1 357 6 12 6 23 -1 31 -20 23 -1 55 41 68 36 10 38
14 33 40 -4 18 -3 28 5 28 25 0 -33 55 -63 60 -24 4 -33 11 -35 29 -4 23 -2
23 62 19 l66 -4 0 51 0 51 -66 0 c-46 0 -68 5 -75 15 -6 10 -9 2 -10 -26 0
-41 -3 -64 -13 -129 -4 -21 -2 -36 4 -36 6 0 10 -6 10 -14 0 -8 4 -17 9 -20 4
-3 6 5 4 17 -4 20 0 23 26 22 17 0 38 -8 48 -17 15 -16 15 -17 -8 -15 -13 0
-27 6 -31 12 -4 5 -8 -3 -8 -18 0 -26 -3 -28 -32 -25 -28 3 -33 7 -31 28 1 14
0 19 -3 13 -3 -7 -12 -13 -20 -13 -8 0 -14 -7 -14 -15 0 -8 -4 -15 -10 -15
-16 0 -12 10 21 51 l31 39 -31 0 c-20 0 -31 -5 -31 -14 0 -7 -7 -19 -15 -26
-10 -8 -12 -17 -5 -30 6 -11 5 -21 -2 -28 -11 -11 2 -19 55 -36 25 -8 33 -37
14 -48 -10 -5 -17 -14 -17 -21 0 -7 -27 -33 -59 -59 -195 -156 -257 -373 -165
-579 32 -72 84 -121 178 -167 37 -19 65 -36 62 -39 -3 -3 1 -15 9 -27 20 -28
19 -82 -3 -104 -9 -9 -16 -26 -14 -37 3 -20 3 -20 -13 -1 -11 15 -15 16 -15 5
0 -8 9 -20 21 -27 11 -7 18 -19 16 -27 -7 -18 67 -77 87 -69 9 3 16 1 16 -5 0
-6 -17 -11 -40 -11 -32 0 -43 5 -57 26 -9 14 -17 35 -18 47 -1 11 -7 23 -14
25 -17 6 12 -62 45 -105 24 -31 75 -69 60 -44 -5 8 30 11 121 11 116 -1 126
-2 103 -15 -14 -8 -20 -14 -14 -15 42 -1 103 95 104 163 l0 37 130 0 130 0 0
40 c0 41 21 57 34 24 10 -26 7 -33 -19 -56 -28 -24 -32 -38 -11 -38 8 0 17 8
19 18 4 16 5 16 6 0 1 -24 17 -23 24 2 3 11 1 20 -4 20 -5 0 -9 5 -9 10 0 6 7
10 15 10 8 0 15 7 15 15 0 8 -7 15 -15 15 -8 0 -15 5 -15 10 0 17 28 11 40 -7
10 -16 11 -16 6 -1 -4 14 2 17 35 16 21 0 39 -4 39 -9 0 -5 -7 -9 -15 -9 -8 0
-15 -7 -15 -15 0 -8 7 -15 15 -15 8 0 15 -4 15 -10 0 -5 -16 -9 -35 -8 -19 1
-35 6 -35 12 0 14 -29 -26 -30 -41 0 -7 5 -13 10 -13 6 0 9 5 8 11 -2 6 5 13
15 14 9 2 17 -3 17 -11 0 -20 18 -17 23 4 4 16 5 16 6 0 0 -10 6 -18 11 -18 6
0 10 8 11 18 0 14 2 14 9 -3 7 -17 9 -17 9 -2 1 9 6 17 12 17 6 0 9 -7 5 -15
-3 -8 -1 -15 4 -15 6 0 10 8 11 18 0 14 2 14 9 -3 7 -17 9 -17 9 -2 1 9 6 17
11 17 6 0 10 -8 11 -17 0 -15 2 -15 9 2 7 17 9 17 9 3 1 -10 6 -18 11 -18 6 0
10 -5 10 -11 0 -7 -48 -9 -150 -7 -115 2 -150 0 -150 -9 0 -10 38 -14 153 -15
l152 -2 -155 -6 -155 -5 4 -60 c4 -73 5 -75 42 -75 28 0 29 1 29 50 l0 50 50
0 50 0 0 -50 c0 -49 1 -50 30 -50 29 0 30 1 30 50 0 38 4 50 15 50 12 0 15
-13 15 -55 l0 -55 -41 0 c-22 0 -38 -4 -34 -9 3 -5 19 -9 36 -9 17 1 35 -5 40
-13 7 -12 9 -12 9 1 0 8 2 45 3 82 l3 68 -138 0 c-85 0 -138 4 -138 10 0 16
287 13 293 -2 4 -10 6 -10 6 0 1 14 31 17 31 2 0 -12 59 -11 112 2 41 9 68 40
68 75 0 13 5 23 10 23 6 0 10 9 10 19 0 19 22 30 115 57 26 8 30 14 33 52 3
39 1 42 -21 42 -13 0 -34 -8 -45 -19 -14 -11 -33 -17 -52 -15 -16 2 -32 0 -34
-5 -3 -5 13 -9 37 -9 103 -1 112 -2 97 -12 -8 -5 -93 -10 -188 -10 -135 0
-173 3 -169 13 2 8 23 11 65 10 34 -1 64 1 66 6 3 4 -22 7 -54 7 -58 -1 -87
13 -32 15 18 1 21 3 8 6 -15 4 -17 11 -13 39 3 19 2 34 -4 34 -5 0 -9 4 -9 9
0 15 51 72 60 66 4 -2 16 5 26 16 10 11 14 19 9 17 -6 -2 -12 2 -14 7 -3 6 3
11 12 13 20 4 20 -5 3 -78 -11 -48 -16 -55 -39 -58 -21 -3 -27 -9 -27 -28 0
-17 5 -24 20 -24 13 0 20 7 20 19 0 10 7 21 15 25 8 3 15 14 15 24 0 28 21 82
31 82 13 0 11 -43 -4 -65 -7 -11 -14 -35 -16 -52 -2 -28 1 -33 21 -34 22 0 22
-1 3 -9 -15 -6 -9 -8 25 -8 25 0 35 3 23 5 -24 5 -27 11 -17 37 9 23 24 20 24
-4 0 -13 7 -20 20 -20 24 0 24 13 6 92 -12 50 -12 57 2 63 26 10 103 -80 85
-99 -15 -15 -31 -3 -41 33 -7 21 -20 45 -29 52 -15 13 -15 12 0 -18 10 -18 18
-41 20 -52 2 -11 6 -24 10 -27 4 -4 7 -16 7 -26 0 -26 28 -22 32 5 2 12 10 22
18 23 40 3 41 4 30 23 -5 11 -10 31 -10 45 0 22 -5 26 -28 26 -34 0 -52 16
-52 47 0 19 -5 23 -31 23 -24 0 -30 3 -25 16 3 9 8 34 11 57 4 42 3 38 -16
-35 l-10 -38 -75 0 c-67 0 -75 -2 -70 -16 4 -10 -1 -25 -10 -35 -10 -11 -14
-19 -10 -19 4 0 -2 -13 -13 -29 -12 -16 -21 -34 -21 -40 0 -6 -5 -11 -10 -11
-12 0 3 34 28 63 14 16 13 17 -17 17 -28 0 -31 -3 -31 -27 1 -16 0 -37 -2 -48
-2 -14 3 -21 20 -23 16 -3 22 -8 18 -19 -3 -8 -6 -17 -6 -19 0 -2 -40 -4 -90
-4 l-90 0 0 109 c0 115 6 132 50 146 15 5 19 12 15 26 -5 15 -1 19 16 19 13 0
86 12 162 26 116 22 141 24 148 13 7 -11 9 -10 9 4 0 9 7 17 15 17 8 0 15 5
15 10 0 6 -11 10 -25 10 -25 0 -25 1 -25 83 1 105 20 212 60 332 21 64 38 99
52 106 13 7 17 14 10 21 -6 6 -25 2 -53 -10 -24 -11 -66 -28 -94 -37 -58 -20
-76 -27 -129 -50 -21 -9 -44 -18 -50 -20 -12 -2 -21 -5 -114 -41 -34 -13 -66
-24 -70 -24 -8 0 -6 359 2 367 3 3 1 14 -4 24 -10 18 10 49 31 49 5 0 9 7 9
15 0 9 -9 15 -24 15 -19 0 -24 6 -30 38 -13 81 -14 80 59 74 l65 -5 0 57 0 56
-69 0 c-46 0 -71 4 -73 12 -3 7 -8 -9 -11 -36z m-17 -508 l0 -187 -30 6 c-26
5 -30 2 -30 -15 0 -12 9 -23 20 -27 22 -7 36 -45 26 -71 -10 -25 -84 23 -123
80 -55 80 -68 172 -37 263 21 62 47 98 96 133 33 25 43 27 59 17 18 -11 19
-25 19 -199z m-600 45 c-36 -11 -59 -27 -63 -42 -3 -10 -5 -8 -6 7 -1 18 -7
22 -33 22 -18 0 -40 5 -48 10 -10 7 13 9 75 9 50 0 83 -3 75 -6z m1061 -134
c-6 -18 -9 -34 -7 -36 2 -3 9 12 16 32 7 20 14 35 16 32 2 -2 -5 -30 -16 -61
-30 -87 -50 -208 -50 -300 0 -56 -3 -76 -10 -66 -6 10 -10 11 -10 3 0 -26 -20
-12 -21 15 -2 25 -2 26 -6 3 -4 -19 -7 -21 -14 -10 -6 10 -9 10 -9 2 0 -7 -4
-13 -10 -13 -5 0 -11 17 -12 38 l-1 37 -5 -35 c-5 -33 -5 -34 -12 -10 -8 24
-8 24 -9 3 -1 -33 -21 -28 -22 5 -2 25 -2 26 -6 3 -4 -19 -7 -21 -14 -10 -7
12 -9 12 -9 -1 0 -13 -1 -13 -10 0 -9 13 -10 13 -10 0 0 -13 -1 -13 -10 0 -7
11 -10 11 -10 2 0 -7 -5 -10 -10 -7 -19 12 -118 25 -122 16 -2 -3 -19 -3 -38
0 -27 5 -29 7 -10 8 36 2 40 41 4 41 -17 0 -24 6 -24 19 0 25 27 34 39 13 9
-14 10 -13 11 11 0 15 5 27 10 27 6 0 10 5 10 10 0 6 -7 10 -15 10 -24 0 -17
16 12 29 21 10 28 9 34 -1 6 -9 9 -5 9 12 0 20 2 22 11 10 8 -11 9 -6 4 20 -4
23 -3 30 3 22 7 -10 11 -5 16 20 5 26 9 30 16 18 9 -13 10 -13 10 0 0 13 1 13
11 0 8 -12 9 -10 4 9 -5 18 -4 22 6 16 9 -6 11 -4 6 8 -3 9 -2 19 3 22 6 4 10
-4 10 -17 1 -21 2 -21 11 -5 6 9 15 14 21 11 7 -5 9 -1 5 9 -3 9 -2 19 3 22 6
4 10 -4 11 -17 1 -22 2 -21 12 5 6 15 14 27 19 27 4 0 4 -7 1 -17 -5 -11 -3
-14 6 -8 10 5 12 1 7 -16 -4 -19 -3 -18 6 4 7 15 18 25 24 23 7 -3 14 0 16 6
2 6 11 12 20 14 14 2 15 -2 7 -23 -16 -42 -8 -40 11 4 15 33 23 41 39 38 12
-2 21 1 21 7 0 6 3 9 6 5 4 -3 1 -20 -5 -38z m-1162 -184 c-4 -231 -1 -338 12
-405 1 -8 5 10 9 40 7 53 7 52 5 -17 -1 -40 3 -74 8 -76 6 -2 11 -13 12 -25 1
-12 10 -30 20 -42 10 -11 14 -20 9 -20 -5 0 2 -9 16 -20 15 -12 18 -18 8 -14
-32 11 -19 -5 20 -25 20 -11 30 -21 22 -21 -8 0 0 -9 19 -19 27 -14 30 -19 17
-24 -11 -5 -15 -3 -10 5 5 8 2 9 -10 5 -11 -5 -15 -3 -10 5 5 8 2 9 -10 5 -11
-5 -15 -3 -10 5 5 8 2 9 -10 5 -10 -4 -15 -3 -11 3 3 6 2 10 -4 10 -5 0 -12
-4 -16 -10 -3 -5 -12 -7 -21 -3 -24 9 4 35 30 27 25 -8 20 -1 -13 16 -13 6
-21 8 -17 2 3 -5 -1 -15 -9 -22 -11 -9 -20 -7 -45 10 -18 13 -29 28 -26 36 3
7 1 16 -5 19 -5 4 -7 10 -4 14 2 5 -7 19 -20 31 -14 13 -25 28 -25 34 0 5 16
-5 35 -24 19 -18 32 -37 29 -41 -2 -4 0 -11 6 -14 8 -5 7 -11 -1 -21 -6 -8 -9
-14 -5 -14 3 0 9 0 14 0 10 0 10 23 -1 38 -14 18 5 14 33 -8 14 -11 30 -20 35
-19 6 0 2 4 -9 10 -13 8 -15 14 -7 19 8 4 -3 17 -29 35 -46 32 -87 81 -118
140 -12 22 -21 36 -22 32 -1 -24 50 -99 102 -149 32 -32 53 -58 47 -58 -6 0
-37 26 -68 58 -32 31 -54 53 -49 48 4 -6 8 -15 8 -20 -1 -6 -10 0 -21 14 -23
27 -45 34 -56 18 -3 -7 -1 -8 5 -4 16 9 15 -7 0 -22 -14 -14 -32 -16 -23 -2 3
6 -1 7 -10 4 -13 -5 -15 -1 -11 19 3 18 1 24 -8 21 -12 -5 -51 64 -41 74 3 3
-2 14 -12 24 -15 17 -15 20 5 39 30 27 28 35 -4 14 -25 -16 -25 -16 -15 3 8
15 7 23 -4 32 -17 14 -21 80 -4 80 5 0 7 5 3 11 -5 8 1 10 18 7 21 -4 25 -1
24 16 -1 12 -7 20 -14 19 -7 -2 -12 1 -12 6 0 19 130 200 144 201 5 0 2 -8 -6
-17 -9 -10 -19 -28 -22 -40 -4 -12 -21 -37 -37 -54 -56 -60 -74 -94 -44 -82 9
3 14 8 11 11 -3 2 7 16 22 31 16 14 31 34 35 44 4 10 11 16 16 12 6 -3 8 3 6
14 -2 11 3 22 11 25 9 3 12 11 8 17 -4 8 -3 9 4 5 7 -4 12 -2 12 4 0 6 4 9 9
5 10 -5 7 -43 -4 -53 -2 -3 1 -12 8 -20 10 -13 9 -15 -11 -9 -22 5 -23 4 -9
-11 9 -9 18 -30 21 -47 l6 -30 -10 27 c-6 14 -18 29 -26 32 -12 5 -12 3 0 -17
8 -12 20 -65 26 -117 8 -69 20 -113 42 -160 23 -48 32 -60 36 -45 2 10 -1 21
-7 23 -5 2 -13 19 -17 38 -3 18 -9 32 -13 30 -7 -5 -8 14 -10 182 -1 74 4 144
14 190 8 40 15 76 15 78 0 3 5 4 11 2 7 -2 10 -60 8 -183z m826 78 c-8 -21
-27 -48 -41 -60 -25 -23 -74 -31 -74 -13 0 6 11 10 25 10 14 0 28 7 31 15 3 8
14 17 25 20 26 9 24 33 -3 38 -23 4 -23 4 2 15 46 20 52 16 35 -25z m-65 -3
c0 -5 -14 -10 -31 -10 -17 0 -28 4 -24 10 3 6 17 10 31 10 13 0 24 -4 24 -10z
m-26 -102 c-3 -4 0 -8 5 -8 15 0 14 -27 -1 -33 -7 -2 -19 -2 -25 1 -16 5 -17
32 -2 32 5 0 8 4 5 8 -3 5 1 9 9 9 8 0 12 -4 9 -9z m11 -243 c0 -58 -2 -65
-20 -65 -18 0 -20 6 -17 52 4 65 8 78 24 78 9 0 13 -19 13 -65z m193 44 c75
-11 146 -23 157 -26 12 -4 -41 -17 -131 -34 -83 -15 -161 -30 -173 -34 -19 -6
-21 -3 -21 39 0 24 -3 51 -6 60 -8 21 6 21 174 -5z m-1149 -214 c18 -25 38
-45 45 -45 7 0 23 -11 36 -25 12 -13 27 -22 31 -19 5 3 6 -2 3 -10 -5 -14 -10
-13 -34 4 -32 23 -94 90 -110 119 -18 34 -5 24 29 -24z m952 -74 c-2 -77 1
-106 11 -112 8 -6 -2 -9 -27 -9 -25 0 -35 3 -27 9 10 6 13 35 12 107 -1 54 -1
103 -1 107 1 5 8 7 17 5 14 -3 16 -18 15 -107z m-780 -18 c0 -5 5 -13 10 -19
16 -19 -4 -25 -24 -7 -10 10 -22 17 -26 16 -3 -2 -6 3 -6 10 0 6 -5 12 -12 12
-21 0 -37 22 -22 30 8 6 10 4 4 -5 -6 -9 -4 -11 5 -5 9 6 11 4 5 -6 -8 -12 -6
-12 8 0 19 15 23 26 7 16 -6 -4 -10 -3 -9 2 3 20 -2 25 -16 13 -23 -19 -37 -2
-18 24 l17 23 38 -49 c21 -26 39 -51 39 -55z m1239 85 c0 -8 -19 -12 -59 -10
-20 1 -22 0 -9 -11 15 -12 38 -68 38 -93 0 -8 -7 -14 -15 -14 -8 0 -14 3 -13
8 1 4 -6 24 -15 46 -9 21 -17 49 -17 61 0 20 5 22 45 21 25 0 45 -4 45 -8z
m-510 -207 c0 -4 -27 -8 -60 -7 -74 1 -79 14 -7 18 56 3 67 1 67 -11z m210 0
c0 -4 -29 -8 -65 -7 -38 0 -65 4 -65 11 0 6 24 9 65 7 36 -2 65 -7 65 -11z
m-160 0 c0 -16 53 -27 118 -26 45 1 62 -2 62 -12 0 -10 -37 -13 -175 -13 -110
0 -175 4 -175 10 0 6 8 10 18 11 66 2 124 17 117 29 -3 6 3 10 14 10 12 0 21
-4 21 -9z m-610 -28 c25 -11 76 -35 114 -52 53 -24 67 -35 62 -48 -7 -18 29
-63 51 -63 21 0 15 -25 -12 -54 -23 -25 -29 -26 -122 -26 -89 0 -101 2 -128
25 -24 20 -27 26 -16 34 11 7 12 13 4 23 -12 15 -18 192 -6 186 4 -2 28 -13
53 -25z m1072 -33 c-18 -4 -42 -16 -54 -26 -20 -19 -21 -19 -14 4 7 20 4 22
-24 22 -28 0 -31 -2 -24 -22 7 -23 6 -23 -14 -4 -12 10 -36 22 -54 26 -21 5
11 8 92 8 81 0 113 -3 92 -8z m-362 -35 c0 -24 -5 -35 -15 -35 -15 0 -17 5
-17 35 0 30 2 35 17 35 10 0 15 -11 15 -35z m175 9 c50 -17 79 -69 52 -89 -10
-7 -17 -22 -17 -33 0 -15 -4 -20 -16 -15 -9 3 -14 13 -11 24 3 11 1 19 -4 19
-5 0 -9 -12 -9 -27 0 -26 -1 -26 -14 -7 -8 10 -11 20 -7 22 4 1 5 16 3 32 -4
26 -8 30 -36 30 -29 0 -31 3 -32 35 0 32 1 34 25 29 14 -3 44 -12 66 -20z
m-971 -82 c6 -10 2 -13 -15 -10 -15 2 -25 11 -27 23 -3 17 -1 17 7 5 8 -11 11
-4 12 30 l2 45 6 -40 c4 -22 10 -46 15 -53z m346 58 c-9 -16 -15 -18 -30 -10
-29 16 -24 30 10 30 28 0 30 -2 20 -20z m755 -10 c-7 -12 -62 -14 -69 -2 -3 5
13 9 35 11 26 1 38 -2 34 -9z m-171 -46 c4 -11 0 -15 -16 -12 -12 2 -23 9 -26
16 -6 18 35 15 42 -4z m134 -26 c-18 -26 -48 -36 -48 -16 0 20 21 38 43 38 18
0 18 -2 5 -22z"/>
<path d="M2061 1533 c-1 -6 -4 -19 -8 -29 -4 -11 -3 -15 5 -10 6 3 12 -3 15
-16 4 -22 4 -21 5 2 1 25 -16 76 -17 53z"/>
<path d="M1160 1529 c11 -24 20 -64 21 -89 1 -25 5 -58 9 -75 5 -19 6 -3 3 40
-6 88 -19 139 -38 155 -11 9 -10 1 5 -31z"/>
<path d="M1110 1505 c7 -9 19 -41 26 -73 l14 -57 -6 53 c-5 54 -21 92 -38 92
-4 0 -3 -7 4 -15z"/>
<path d="M1096 1475 c5 -11 9 -50 9 -87 0 -38 4 -68 9 -68 14 0 2 148 -13 162
-12 11 -12 10 -5 -7z"/>
<path d="M1022 1453 c-15 -32 -1 -83 24 -83 19 0 18 15 -4 31 -9 8 -16 13 -13
12 2 -1 12 2 22 7 12 7 20 6 26 -2 11 -18 11 -69 1 -93 -9 -20 -9 -20 6 -1 20
25 20 80 1 100 -9 8 -16 19 -15 23 0 4 -3 8 -7 8 -5 0 -13 4 -20 8 -7 4 -15 0
-21 -10z"/>
<path d="M1171 1348 c-2 -43 43 -131 92 -182 43 -44 45 -45 11 -6 -49 55 -62
78 -85 150 -10 30 -18 47 -18 38z"/>
<path d="M1200 1322 c0 -19 48 -109 62 -118 10 -6 10 -5 1 7 -7 8 -23 39 -37
69 -14 30 -26 49 -26 42z"/>
<path d="M1108 1260 c-19 -46 -16 -53 6 -12 8 15 15 21 16 14 0 -7 -5 -23 -11
-34 -8 -15 -8 -19 0 -14 15 10 14 -7 -1 -22 -7 -7 -9 -12 -5 -12 4 0 16 15 27
33 11 17 20 27 20 21 0 -5 7 -19 14 -30 9 -11 6 5 -7 38 -15 39 -24 51 -28 40
-6 -16 -7 -16 -10 0 -3 12 -9 5 -21 -22z"/>
<path d="M626 1093 c-18 -157 -18 -158 2 -176 18 -17 20 -17 26 -1 22 58 14
202 -13 219 -5 3 -12 -16 -15 -42z"/>
<path d="M770 1114 c-8 -3 -26 -20 -39 -39 -13 -19 -27 -35 -32 -35 -5 0 -6
-7 -3 -15 4 -8 1 -15 -5 -15 -6 0 -11 -14 -11 -31 0 -17 -5 -40 -11 -51 -8
-15 -8 -23 1 -32 8 -8 10 -7 5 5 -4 10 -2 20 4 24 7 4 11 -4 11 -19 0 -14 -4
-26 -10 -26 -5 0 -8 -10 -7 -22 2 -12 -4 -45 -15 -72 -10 -28 -16 -57 -13 -64
3 -8 0 -10 -8 -6 -9 5 -9 4 1 -7 6 -7 12 -22 12 -33 0 -17 -2 -18 -10 -6 -7
11 -8 4 -6 -24 6 -55 21 -63 22 -10 1 24 12 100 24 169 22 118 25 125 47 125
12 0 23 4 23 9 0 14 -29 21 -36 9 -10 -15 -26 16 -18 36 4 11 17 16 40 14 19
-1 34 -6 34 -10 0 -5 -12 -6 -26 -4 -15 3 -23 2 -19 -2 3 -4 11 -7 17 -7 18 0
19 -46 2 -128 -8 -43 -14 -80 -12 -82 10 -10 138 -41 145 -36 12 7 53 127 53
153 0 10 5 18 10 18 6 0 10 5 10 12 0 9 -3 9 -11 1 -7 -7 -32 -4 -86 13 -84
26 -91 30 -77 44 6 6 21 6 39 1 17 -5 56 -17 88 -27 31 -9 57 -20 57 -23 0 -3
-13 -80 -30 -171 -16 -91 -32 -181 -35 -200 -19 -121 -45 -230 -54 -230 -17 1
-41 30 -41 49 0 32 -23 71 -69 116 -23 21 -41 45 -41 51 0 7 -4 15 -9 19 -5 3
-9 -15 -8 -40 1 -31 -3 -49 -13 -55 -22 -14 -43 -12 -34 3 5 8 2 7 -9 -2 -18
-14 -30 -10 -33 12 -1 7 9 13 22 14 57 6 64 8 61 17 -2 5 -17 10 -35 11 -17 1
-29 -2 -26 -7 8 -13 -10 -9 -32 6 -19 14 -19 15 0 33 18 17 18 17 6 -7 -12
-22 -11 -23 2 -13 8 7 19 9 23 5 5 -4 5 -2 1 5 -3 6 -2 14 4 18 5 3 10 2 10
-2 0 -5 9 -9 19 -9 15 0 17 3 9 13 -6 7 -14 10 -19 7 -5 -3 -9 3 -10 13 0 17
-1 17 -8 0 -6 -17 -8 -17 -20 -3 -9 10 -9 16 -3 16 7 0 9 7 5 17 -4 11 -3 14
6 9 9 -6 11 1 6 28 -5 22 -3 36 3 36 14 0 22 49 9 57 -6 3 -7 1 -3 -5 4 -7 2
-12 -3 -12 -6 0 -11 9 -11 20 0 11 7 20 15 20 8 0 15 4 15 9 0 5 -14 8 -32 6
-23 -3 -41 3 -67 22 -56 42 -61 49 -61 83 0 25 3 31 16 26 9 -3 18 -6 20 -6 3
0 2 -5 -2 -11 -5 -8 -1 -8 14 0 19 10 37 40 28 48 -2 3 -7 -5 -11 -16 -3 -12
-11 -21 -17 -21 -6 0 -6 6 2 15 7 8 10 22 6 30 -4 12 4 20 28 30 39 16 55 35
31 35 -31 0 -87 -29 -79 -41 4 -8 3 -9 -4 -5 -6 4 -17 -2 -24 -14 -7 -11 -18
-20 -25 -20 -19 0 -43 -30 -43 -53 0 -25 106 -127 132 -127 23 0 31 -16 18
-39 -8 -16 -6 -21 11 -26 16 -5 19 -12 15 -28 -4 -12 -9 -38 -13 -57 -3 -19
-13 -43 -21 -53 -13 -15 -14 -22 -4 -37 7 -11 12 -26 12 -33 0 -35 79 -63 105
-38 6 5 41 -25 90 -79 44 -49 83 -89 87 -89 4 -1 10 10 14 24 5 22 8 23 21 9
8 -8 41 -32 72 -53 325 -220 768 -226 1103 -15 21 13 38 32 38 42 0 9 12 40
25 67 l24 50 -30 -35 -29 -35 10 30 c14 39 72 99 81 84 7 -12 49 5 49 19 0 16
-75 -1 -92 -22 -28 -32 -68 -113 -68 -136 0 -19 -7 -20 -107 -22 l-108 -2 104
-3 104 -4 -39 -19 c-28 -15 -61 -20 -124 -22 l-85 -2 75 -5 75 -6 -61 -23
c-59 -21 -74 -22 -392 -22 -330 0 -330 0 -383 25 l-53 24 99 4 100 3 -110 2
c-83 1 -116 6 -134 18 -18 13 -20 18 -10 25 10 6 2 9 -21 9 -40 1 -70 19 -70
44 0 11 -9 16 -26 16 -19 0 -25 5 -22 18 2 13 17 18 58 23 l55 6 -52 1 -51 2
5 43 c3 23 8 44 10 47 2 3 26 -18 52 -45 27 -28 64 -58 82 -68 l34 -18 -30 22
c-64 48 -135 126 -130 141 5 12 19 3 58 -36 29 -29 77 -69 107 -89 53 -36 176
-84 186 -74 3 3 -5 8 -18 12 -58 16 -127 48 -122 56 3 5 -5 9 -17 9 -34 0
-165 115 -180 158 -11 31 2 52 32 52 26 0 29 -4 29 -30 0 -16 5 -30 11 -30 11
0 39 -24 39 -34 0 -2 -15 -7 -32 -9 -32 -4 -32 -4 5 -5 20 -1 37 -6 37 -12 0
-5 6 -7 14 -4 9 3 17 -3 21 -15 4 -13 27 -30 58 -43 52 -23 52 -23 22 -29 -25
-5 -21 -6 23 -10 28 -2 52 -2 52 1 0 3 -23 16 -52 29 -96 44 -189 167 -221
290 -11 45 -11 64 2 132 l15 79 38 0 c37 0 38 1 38 35 0 33 -2 35 -35 35 -19
0 -35 -4 -35 -10 0 -5 7 -7 15 -4 8 4 15 1 15 -5 0 -6 -9 -11 -20 -11 -13 0
-17 -5 -14 -14 4 -11 -2 -11 -30 2 -33 16 -35 21 -36 62 -1 39 -2 42 -12 25
-6 -11 -17 -24 -25 -28 -7 -5 -11 -13 -7 -19 4 -6 -1 -8 -12 -5 -11 4 -31 9
-45 12 -18 4 -29 15 -32 30 -2 14 -1 26 3 27 10 4 23 78 13 77 -4 -1 -15 -3
-23 -5z m-10 -86 c0 -10 -5 -18 -11 -18 -5 0 -7 5 -3 11 4 8 0 9 -15 4 -15 -4
-19 -3 -16 7 8 21 45 17 45 -4z m-302 -147 c-1 -34 -3 -37 -16 -25 -9 9 -12
24 -8 39 10 39 26 29 24 -14z m417 9 c13 -14 16 -28 11 -54 -4 -20 -12 -38
-18 -42 -13 -8 -28 14 -28 44 0 12 -4 22 -10 22 -17 0 -11 -58 7 -68 15 -9 14
-10 -3 -20 -14 -7 -22 -6 -32 4 -9 10 -9 14 -1 14 8 0 8 4 1 13 -6 6 -12 28
-14 47 -2 28 1 36 22 47 34 17 44 16 65 -7z m-97 -89 c2 -30 -10 -41 -23 -20
-9 13 3 61 13 55 4 -2 9 -18 10 -35z m180 -163 c19 -19 14 -28 -13 -28 -27 0
-28 1 -19 24 7 19 16 20 32 4z m797 -495 c-64 -17 -374 -30 -403 -17 -10 4
-34 9 -56 11 -21 2 -46 8 -55 13 -10 6 88 9 279 9 285 -1 293 -2 235 -16z"/>
<path d="M1158 984 c-16 -8 -28 -19 -28 -24 0 -6 -16 -10 -35 -10 -19 0 -35
-4 -35 -10 0 -5 11 -10 25 -10 14 0 25 -4 25 -9 0 -5 -11 -8 -25 -6 -14 1 -25
-1 -25 -6 0 -4 12 -9 26 -11 17 -2 30 -11 35 -25 8 -23 7 -23 -72 -23 l-81 0
7 -57 c21 -172 113 -314 232 -359 24 -9 43 -23 43 -30 0 -8 7 -14 15 -14 8 0
15 -7 15 -15 0 -22 61 -86 97 -101 35 -15 71 -19 59 -7 -8 8 -14 10 -47 12
-23 1 -99 71 -99 90 0 8 46 11 150 11 83 0 150 -3 150 -8 0 -11 -31 -54 -55
-75 -20 -18 -20 -18 3 -5 13 7 32 28 44 46 11 18 23 31 25 28 8 -8 -25 -57
-56 -84 -23 -21 -23 -22 -3 -12 12 6 34 29 48 50 19 29 34 40 51 40 13 0 33 5
44 10 14 8 19 7 19 -2 0 -9 3 -9 12 0 8 8 44 12 98 12 l85 -1 -35 -19 c-44
-24 -124 -48 -215 -65 -42 -8 -58 -13 -39 -14 49 -2 224 47 274 76 25 14 62
41 83 60 21 18 43 31 48 27 16 -10 -57 -80 -117 -111 -29 -15 -51 -29 -49 -31
5 -5 65 27 102 54 22 17 46 24 80 26 l48 1 -44 6 -43 6 22 20 c23 21 26 21 48
3 8 -7 12 -7 12 1 0 6 5 10 12 8 6 -1 13 7 14 18 2 15 2 16 -2 2 -3 -9 -10
-15 -15 -11 -5 3 -7 10 -4 15 4 5 -1 9 -11 9 -13 0 -14 -3 -4 -14 9 -12 8 -15
-8 -13 -12 0 -18 6 -15 14 3 9 -4 13 -22 13 -18 0 -37 -11 -58 -34 -36 -40
-34 -39 -142 -37 -59 2 -74 5 -57 11 12 5 22 13 22 19 0 5 8 11 18 13 10 3 19
13 19 22 0 22 -4 21 -45 -15 -40 -36 -106 -68 -139 -69 -16 0 -20 5 -16 20 3
11 14 20 25 20 32 0 93 37 128 76 45 52 78 128 86 199 4 37 13 65 23 74 14 12
13 13 -9 7 -14 -3 -55 -6 -92 -6 l-67 0 -12 -42 c-16 -63 -46 -110 -84 -136
-32 -23 -35 -23 -59 -7 -14 10 -26 21 -26 24 0 10 -18 12 -105 15 -61 2 -73
-1 -95 -21 -14 -13 -28 -23 -31 -23 -4 0 -29 24 -55 53 -48 53 -84 128 -84
176 0 14 -9 34 -19 45 -46 49 -27 111 43 142 23 10 26 13 11 13 -11 0 -32 -7
-47 -15z m-45 -163 c4 -1 11 -1 16 -1 4 0 16 -30 26 -66 19 -70 93 -184 120
-184 18 0 18 -8 0 -40 -23 -40 -17 -46 8 -10 12 19 29 36 37 38 10 3 8 -3 -6
-19 -12 -13 -25 -35 -29 -49 -4 -16 -3 -20 3 -12 7 10 45 12 161 10 118 -2
150 0 146 10 -17 41 -18 47 -6 36 7 -6 19 -29 26 -50 8 -22 14 -31 15 -21 0
10 -7 31 -15 46 -15 30 -10 41 26 54 25 9 64 66 84 123 l18 51 56 0 c31 0 50
-2 43 -4 -9 -4 -10 -9 -3 -17 14 -16 -11 -116 -41 -165 -40 -67 -122 -129
-155 -117 -8 3 -17 -2 -21 -12 -5 -13 -8 -8 -13 18 l-6 35 -2 -42 -1 -43 -160
0 -160 0 -1 38 c-1 37 -1 37 -9 7 -7 -29 -8 -29 -10 10 -2 25 -4 32 -7 18 -4
-22 -33 -34 -33 -14 0 5 -14 14 -30 21 -77 32 -174 183 -187 291 -7 58 1 68
48 63 20 -3 28 0 23 7 -4 8 -1 8 12 1 11 -6 22 -10 27 -11z m376 -241 c33 -9
91 -55 91 -72 0 -4 -63 -8 -141 -8 -108 0 -140 3 -137 13 3 6 14 16 26 22 12
5 22 15 22 22 0 26 81 40 139 23z"/>
<path d="M590 881 c0 -30 29 -91 43 -91 9 0 14 13 21 63 2 20 1 37 -5 37 -5 0
-9 -17 -9 -37 0 -41 -14 -36 -25 10 -5 19 -3 27 6 27 11 0 11 3 -1 10 -24 16
-30 12 -30 -19z"/>
<path d="M701 781 c-11 -7 -11 -9 0 -13 16 -5 18 -120 2 -125 -5 -2 -8 -18 -6
-36 3 -26 1 -28 -6 -12 -7 14 -10 15 -10 5 0 -8 4 -22 9 -30 7 -11 10 -11 10
-2 0 7 27 -7 60 -33 53 -41 60 -44 68 -28 16 31 44 162 39 177 -3 8 -33 22
-66 32 -62 17 -76 27 -82 56 -3 12 -8 15 -18 9z m100 -82 c45 -16 52 -23 44
-49 l-7 -22 -19 21 c-23 24 -37 26 -63 6 -16 -12 -17 -20 -10 -46 12 -42 37
-58 65 -41 19 12 20 12 14 -10 -12 -38 -18 -38 -68 -2 -37 27 -46 39 -43 57 3
12 8 39 11 60 7 41 18 45 76 26z m9 -68 c14 -27 2 -53 -24 -49 -21 3 -32 28
-22 54 8 20 33 17 46 -5z"/>
<path d="M2411 712 c-7 -13 -31 -22 -88 -30 -43 -7 -90 -12 -105 -12 -26 0
-28 -3 -28 -45 0 -25 5 -45 10 -45 6 0 15 -10 21 -22 8 -19 8 -18 3 7 -15 65
-12 77 24 80 l34 3 -6 -57 c-3 -31 -5 -59 -5 -63 -1 -4 -96 -7 -212 -7 -202 0
-212 -1 -226 -20 -14 -21 -14 -21 209 -22 123 0 217 -3 211 -6 -19 -7 -16 -30
5 -42 13 -8 6 -11 -33 -12 -47 -2 -47 -3 -10 -6 72 -7 72 -17 0 -23 l-70 -6
93 -2 c83 -2 92 -4 92 -21 0 -25 -10 -28 -117 -27 -51 1 -94 -3 -96 -8 -2 -6
0 -30 4 -55 10 -67 39 -87 139 -96 45 -4 83 -6 85 -4 2 2 6 57 8 122 6 112 5
117 -14 117 -33 0 -56 18 -68 51 -15 44 -14 52 7 44 9 -4 26 -7 37 -7 10 1 25
-4 32 -9 6 -6 21 -8 32 -4 14 4 23 0 31 -15 9 -17 20 -20 80 -20 l70 0 0 140
0 140 -70 0 c-57 0 -71 -3 -79 -18z m105 -39 c14 -15 20 -29 15 -33 -6 -3 -11
-37 -13 -75 l-3 -70 -42 -3 -43 -3 0 105 0 106 30 0 c21 0 39 -9 56 -27z
m-116 -73 c0 -79 0 -80 -25 -80 -24 0 -25 2 -25 74 0 69 2 75 23 79 12 2 23 5
25 6 1 0 2 -35 2 -79z m-60 -6 c0 -62 -1 -65 -22 -62 -20 3 -23 10 -26 53 -3
38 1 52 14 62 30 22 34 15 34 -53z m77 -56 c-2 -18 -4 -4 -4 32 0 36 2 50 4
33 2 -18 2 -48 0 -65z m-97 -233 c0 -13 -15 -15 -92 -13 -62 2 -93 7 -96 16
-3 9 20 12 92 12 80 0 96 -3 96 -15z m-16 -34 c18 -1 24 -6 23 -21 -1 -19 -7
-21 -82 -18 -65 2 -80 6 -83 20 -2 12 5 17 30 20 31 3 45 3 112 -1z"/>
<path d="M2013 662 c-6 -4 -13 -23 -15 -42 -3 -27 -9 -36 -26 -38 -12 -2 -22
-8 -22 -14 0 -5 7 -7 15 -4 9 3 18 -1 21 -9 5 -12 8 -12 22 2 16 15 17 15 20
0 4 -21 22 -23 22 -2 0 9 6 12 15 9 8 -4 15 -1 15 5 0 6 -4 11 -10 11 -5 0
-10 15 -10 33 0 44 -21 66 -47 49z m35 -54 c3 -32 0 -37 -17 -35 -17 1 -21 8
-21 40 0 31 3 38 18 35 12 -2 18 -14 20 -40z"/>
<path d="M1873 579 c-7 -18 -10 -35 -8 -38 3 -2 5 0 5 5 0 5 12 11 27 12 37 3
55 22 21 22 -16 0 -28 6 -30 16 -2 10 -8 4 -15 -17z"/>
<path d="M1840 452 c0 -5 9 -17 20 -27 11 -10 20 -13 20 -7 0 7 -6 12 -12 12
-9 0 -8 3 2 9 8 6 18 7 22 5 4 -3 8 0 8 5 0 6 -13 11 -30 11 -16 0 -30 -4 -30
-8z"/>
<path d="M1076 339 c5 -9 115 -51 120 -46 2 2 -25 15 -61 29 -35 14 -62 21
-59 17z"/>
<path d="M1073 273 c26 -2 67 -2 90 0 23 2 2 3 -48 3 -49 0 -68 -1 -42 -3z"/>
<path d="M1330 260 c-6 -4 10 -10 36 -14 26 -3 49 -5 50 -3 7 7 -76 23 -86 17z"/>
</g>
</svg>
